# xmcd
#
# Track frame offsets:
#	150
#	22876
#	38849
#	59192
#	75391
#	94461
#	113277
#	131395
#	147270
#	166877
#
# Disc length: 2482 seconds
#
# Revision: 0
# Processed by: cddbd v1.5.2PL0 Copyright (c) Steve Scherf et al.
# Submitted via: EasyCDDAExtractor 11.6.0.1
#
DISCID=7909b00a
DTITLE=曾心梅 - [2002] 半包烟 [闽南语]
DYEAR=1900
DGENRE=
TTITLE0=半包菸
TTITLE1=分手纪念日
TTITLE2=爱你无药医
TTITLE3=放手
TTITLE4=醒来
TTITLE5=违背
TTITLE6=街Y路散步
TTITLE7=因为有你的爱
TTITLE8=甲天借胆
TTITLE9=卡拉作阵
EXTD=
EXTT0=
EXTT1=
EXTT2=
EXTT3=
EXTT4=
EXTT5=
EXTT6=
EXTT7=
EXTT8=
EXTT9=
PLAYORDER=
